<?xml version="1.0" encoding="utf-8"?>
<!-- Generated by Mocodo 4.2.12 -->
<svg width="467" height="315" viewBox="0 0 467 315" xmlns="http://www.w3.org/2000/svg">
<rect x="0" y="0" width="467" height="315" fill="#f7f7f7" stroke="none" stroke-width="0"/>

<!-- Association COMPTER -->
<g>
	<line x1="46" y1="272" x2="46" y2="111" stroke="#e08214" stroke-width="2"/>
	<line x1="166" y1="111" x2="46" y2="111" stroke="#e08214" stroke-width="2"/>
	<g>
		<path d="M69 86 a14 14 90 0 1 14 14 V111 h-74 V100 a14 14 90 0 1 14 -14" fill="#fdb863" stroke="#fdb863" stroke-width="0"/>
		<path d="M83 111 v11 a14 14 90 0 1 -14 14 H23 a14 14 90 0 1 -14 -14 V111 H74" fill="#fee0b6" stroke="#fee0b6" stroke-width="0"/>
		<rect x="9" y="86" width="74" height="50" fill="none" rx="14" stroke="#e08214" stroke-width="2"/>
		<line x1="9" y1="111" x2="83" y2="111" stroke="#e08214" stroke-width="1"/>
		<text x="16" y="103.75" fill="#000000" font-family="Verdana" font-size="12">COMPTER</text>
	</g>
	<text x="51" y="230" fill="#542788" font-family="Verdana" font-size="12">0,N</text>
	<text x="88" y="128" fill="#542788" font-family="Verdana" font-size="12">1,N</text>
</g>

<!-- Association ETRE -->
<g>
	<line x1="406" y1="111" x2="299" y2="111" stroke="#e08214" stroke-width="2"/>
	<line x1="166" y1="111" x2="299" y2="111" stroke="#e08214" stroke-width="2"/>
	<g>
		<path d="M308 86 a14 14 90 0 1 14 14 V111 h-46 V100 a14 14 90 0 1 14 -14" fill="#fdb863" stroke="#fdb863" stroke-width="0"/>
		<path d="M322 111 v11 a14 14 90 0 1 -14 14 H290 a14 14 90 0 1 -14 -14 V111 H46" fill="#fee0b6" stroke="#fee0b6" stroke-width="0"/>
		<rect x="276" y="86" width="46" height="50" fill="none" rx="14" stroke="#e08214" stroke-width="2"/>
		<line x1="276" y1="111" x2="322" y2="111" stroke="#e08214" stroke-width="1"/>
		<text x="283" y="103.75" fill="#000000" font-family="Verdana" font-size="12">ETRE</text>
	</g>
	<text x="327" y="128" fill="#542788" font-family="Verdana" font-size="12">0,N</text>
	<text x="222" y="128" fill="#542788" font-family="Verdana" font-size="12">0,1</text>
</g>

<!-- Association APPARTIENT -->
<g>
	<line x1="299" y1="272" x2="166" y2="272" stroke="#e08214" stroke-width="2"/>
	<line x1="166" y1="111" x2="166" y2="272" stroke="#e08214" stroke-width="2"/>
	<g>
		<path d="M198 247 a14 14 90 0 1 14 14 V272 h-92 V261 a14 14 90 0 1 14 -14" fill="#fdb863" stroke="#fdb863" stroke-width="0"/>
		<path d="M212 272 v11 a14 14 90 0 1 -14 14 H134 a14 14 90 0 1 -14 -14 V272 H92" fill="#fee0b6" stroke="#fee0b6" stroke-width="0"/>
		<rect x="120" y="247" width="92" height="50" fill="none" rx="14" stroke="#e08214" stroke-width="2"/>
		<line x1="120" y1="272" x2="212" y2="272" stroke="#e08214" stroke-width="1"/>
		<text x="128" y="264.75" fill="#000000" font-family="Verdana" font-size="12">APPARTIENT</text>
	</g>
	<text x="217" y="289" fill="#542788" font-family="Verdana" font-size="12">0,N</text>
	<text x="171" y="230" fill="#542788" font-family="Verdana" font-size="12">0,1</text>
</g>

<!-- Entity COFFEE -->
<g>
	<g>
		<rect x="115" y="9" width="102" height="25" fill="#b2abd2" stroke="none" stroke-width="0" opacity="1"/>
		<rect x="115" y="34" width="102" height="179" fill="#d8daeb" stroke="none" stroke-width="0" opacity="1"/>
		<rect x="115" y="9" width="102" height="204" fill="none" stroke="#8073ac" stroke-width="2" opacity="1"/>
		<line x1="115" y1="34" x2="217" y2="34" stroke="#8073ac" stroke-width="1"/>
	</g>
	<text x="142" y="26.75" fill="#000000" font-family="Verdana" font-size="12">COFFEE</text>
	<text x="120" y="51.8" fill="#000000" font-family="Verdana" font-size="12">id</text>
	<line x1="120" y1="54" x2="132" y2="54" stroke="#000000" stroke-width="1"/>
	<text x="120" y="68.8" fill="#000000" font-family="Verdana" font-size="12">name</text>
	<text x="120" y="85.8" fill="#000000" font-family="Verdana" font-size="12">reference</text>
	<text x="120" y="102.8" fill="#000000" font-family="Verdana" font-size="12">description</text>
	<text x="120" y="119.8" fill="#000000" font-family="Verdana" font-size="12">price_kilo</text>
	<text x="120" y="136.8" fill="#000000" font-family="Verdana" font-size="12">origin_id</text>
	<text x="120" y="153.8" fill="#000000" font-family="Verdana" font-size="12">caracteristic_id</text>
	<text x="120" y="170.8" fill="#000000" font-family="Verdana" font-size="12">disponibility_id</text>
	<text x="120" y="187.8" fill="#000000" font-family="Verdana" font-size="12">created_at</text>
	<text x="120" y="204.8" fill="#000000" font-family="Verdana" font-size="12">updated_at</text>
</g>

<!-- Entity DISPONIBILITY -->
<g>
	<g>
		<rect x="354" y="77" width="104" height="25" fill="#b2abd2" stroke="none" stroke-width="0" opacity="1"/>
		<rect x="354" y="102" width="104" height="43" fill="#d8daeb" stroke="none" stroke-width="0" opacity="1"/>
		<rect x="354" y="77" width="104" height="68" fill="none" stroke="#8073ac" stroke-width="2" opacity="1"/>
		<line x1="354" y1="102" x2="458" y2="102" stroke="#8073ac" stroke-width="1"/>
	</g>
	<text x="359" y="94.75" fill="#000000" font-family="Verdana" font-size="12">DISPONIBILITY</text>
	<text x="359" y="119.8" fill="#000000" font-family="Verdana" font-size="12">id</text>
	<line x1="359" y1="122" x2="371" y2="122" stroke="#000000" stroke-width="1"/>
	<text x="359" y="136.8" fill="#000000" font-family="Verdana" font-size="12">dispo</text>
</g>

<!-- Entity ORIGIN -->
<g>
	<g>
		<rect x="17" y="238" width="58" height="25" fill="#b2abd2" stroke="none" stroke-width="0" opacity="1"/>
		<rect x="17" y="263" width="58" height="43" fill="#d8daeb" stroke="none" stroke-width="0" opacity="1"/>
		<rect x="17" y="238" width="58" height="68" fill="none" stroke="#8073ac" stroke-width="2" opacity="1"/>
		<line x1="17" y1="263" x2="75" y2="263" stroke="#8073ac" stroke-width="1"/>
	</g>
	<text x="23" y="255.75" fill="#000000" font-family="Verdana" font-size="12">ORIGIN</text>
	<text x="22" y="280.8" fill="#000000" font-family="Verdana" font-size="12">id</text>
	<line x1="22" y1="283" x2="34" y2="283" stroke="#000000" stroke-width="1"/>
	<text x="22" y="297.8" fill="#000000" font-family="Verdana" font-size="12">name</text>
</g>

<!-- Entity CARACTERISTIC -->
<g>
	<g>
		<rect x="244" y="238" width="110" height="25" fill="#b2abd2" stroke="none" stroke-width="0" opacity="1"/>
		<rect x="244" y="263" width="110" height="43" fill="#d8daeb" stroke="none" stroke-width="0" opacity="1"/>
		<rect x="244" y="238" width="110" height="68" fill="none" stroke="#8073ac" stroke-width="2" opacity="1"/>
		<line x1="244" y1="263" x2="354" y2="263" stroke="#8073ac" stroke-width="1"/>
	</g>
	<text x="249" y="255.75" fill="#000000" font-family="Verdana" font-size="12">CARACTERISTIC</text>
	<text x="249" y="280.8" fill="#000000" font-family="Verdana" font-size="12">id</text>
	<line x1="249" y1="283" x2="261" y2="283" stroke="#000000" stroke-width="1"/>
	<text x="249" y="297.8" fill="#000000" font-family="Verdana" font-size="12">carac</text>
</g>
</svg>